<?xml version="1.0" standalone="no"?>
<!DOCTYPE svg PUBLIC "-//W3C//DTD SVG 1.1//EN" "http://www.w3.org/Graphics/SVG/1.1/DTD/svg11.dtd" >
<svg xmlns="http://www.w3.org/2000/svg" xmlns:xlink="http://www.w3.org/1999/xlink" version="1.1" viewBox="-10 0 1034 1024">
   <path fill="currentColor"
d="M538 172c-4 -4 -9 -6 -16 -6s-13 2 -17 6l-282 254c-5 5 -8 11 -8 18v360c0 8 2 15 7 20s12 7 20 7h126c7 0 14 -2 19 -7s8 -12 8 -20v-178c0 -22 7 -40 21 -55s33 -22 55 -22h102c22 1 40 9 54 23s23 32 24 54v178c0 8 2 15 7 20s10 7 17 7h129c7 0 12 -2 17 -7
s8 -12 8 -20v-360c0 -7 -4 -13 -9 -18zM471 136c15 -14 32 -21 51 -21s36 7 51 21l282 251c16 15 25 34 25 57v360c0 22 -8 41 -23 56s-33 22 -55 22h-127c-22 0 -40 -7 -54 -22s-21 -34 -21 -56v-178c0 -7 -4 -13 -9 -18s-11 -8 -18 -8h-102c-7 0 -14 3 -19 8s-8 11 -8 18
v178v6c0 19 -6 36 -20 50c-15 15 -34 22 -56 22h-126c-22 0 -41 -7 -56 -22s-22 -34 -22 -56v-360c0 -23 8 -42 24 -57z" />
</svg>
