<?xml version="1.0" standalone="no"?>
<!DOCTYPE svg PUBLIC "-//W3C//DTD SVG 1.1//EN" "http://www.w3.org/Graphics/SVG/1.1/DTD/svg11.dtd" >
<svg xmlns="http://www.w3.org/2000/svg" xmlns:xlink="http://www.w3.org/1999/xlink" version="1.1" viewBox="-10 0 1034 1024">
   <path fill="currentColor"
d="M410 389l52 45l-52 60h9c48 0 88 39 88 86s-40 86 -88 86h-35c-48 0 -87 -39 -87 -86v-11c0 -34 13 -67 36 -93zM647 391h70v275h-70v-103h-105v-171h70v102h35v-103zM369 563c0 2 -2 4 -2 6v11c0 10 7 17 17 17h35c10 0 18 -7 18 -17s-8 -17 -18 -17h-50zM133 225
c0 -24 10 -48 27 -65s41 -27 65 -27h585c12 0 24 2 35 7s21 12 29 20s15 19 20 30s7 23 7 35v585c0 24 -10 47 -27 64s-40 27 -64 27h-585c-12 0 -24 -2 -35 -7s-22 -12 -30 -20s-15 -18 -20 -29s-7 -23 -7 -35v-585zM233 203c-8 0 -15 3 -21 9s-9 13 -9 21v568
c0 4 0 7 2 11s4 7 7 10s6 5 10 7s7 2 11 2h568c8 0 15 -3 21 -9s9 -13 9 -21v-568c0 -8 -3 -15 -9 -21s-13 -9 -21 -9h-568z" />
</svg>
