<?xml version="1.0" standalone="no"?>
<!DOCTYPE svg PUBLIC "-//W3C//DTD SVG 1.1//EN" "http://www.w3.org/Graphics/SVG/1.1/DTD/svg11.dtd" >
<svg xmlns="http://www.w3.org/2000/svg" xmlns:xlink="http://www.w3.org/1999/xlink" version="1.1" viewBox="-10 0 1034 1024">
   <path fill="currentColor"
d="M835 829c9 0 14 -9 10 -17l-56 -98c-5 -8 -17 -8 -21 0l-55 95l-64 -111c-5 -8 -16 -8 -20 0l-66 114c-4 8 1 17 10 17h131c4 0 7 -2 9 -4c2 2 5 4 9 4h113zM704 619c-19 0 -35 16 -35 35s16 35 35 35s36 -16 36 -35s-17 -35 -36 -35zM226 177c-8 0 -17 3 -23 9
s-9 15 -9 23v596c0 8 3 16 9 22s15 10 23 10h255v-5v-225c0 -43 35 -78 78 -78h290h5v-320c0 -8 -4 -17 -10 -23s-14 -9 -22 -9h-596zM120 200c0 -25 10 -49 29 -68s42 -29 67 -29h615c25 0 49 10 68 29s28 43 28 68v395c1 4 1 8 1 12v225c0 43 -36 78 -79 78h-18h-272h-343
c-25 0 -48 -9 -67 -28s-29 -43 -29 -68v-614zM378 391c0 2 -2 5 -2 7v12c0 10 8 18 18 18h37c10 0 18 -8 18 -18s-8 -19 -18 -19h-53zM669 208h73v293h-73v-110h-110v-182h73v109h37v-110zM420 206l55 48l-55 64h11c50 0 91 42 91 92s-41 91 -91 91h-37
c-50 0 -92 -41 -92 -91v-12c0 -37 14 -72 38 -100z" />
</svg>
