<?xml version="1.0" encoding="UTF-8" standalone="no"?>
<svg
   version="1.1"
   viewBox="-10 0 689.33333 682.66666"
   width="1034"
   height="1024"
   xmlns="http://www.w3.org/2000/svg"
   xmlns:svg="http://www.w3.org/2000/svg"
   xmlns:rdf="http://www.w3.org/1999/02/22-rdf-syntax-ns#"
   xmlns:cc="http://creativecommons.org/ns#"
   xmlns:dc="http://purl.org/dc/elements/1.1/">
  <path
     class="clr-i-outline clr-i-outline-path-1"
     d="m 75.660938,96.827607 a 37.037036,37.037036 0 0 0 -37.03613,37.036133 v 370.37109 a 37.037036,37.037036 0 0 0 37.03613,37.03613 H 353.43925 l 10.555,-12.96224 17.22168,-21.11167 -1.66666,-2.96222 H 75.660938 V 133.86374 H 594.1798 v 158.51888 a 155.74074,155.74074 0 0 1 37.03613,33.51888 V 133.86374 A 37.037036,37.037036 0 0 0 594.1798,96.827607 Z M 131.21594,207.93764 v 29.63053 h 314.81607 v -29.63053 z m 0,74.07388 v 29.63054 h 203.70442 v -29.63054 z m 378.84927,22.77832 a 117.77777,117.77777 0 0 0 -81.44042,203.70442 l -35.92611,43.88835 16.66666,66.85222 67.7767,-82.59278 a 115.92592,115.92592 0 0 0 65.74056,0 l 67.77831,82.59278 16.66667,-66.85222 -35.92611,-43.88835 A 117.77777,117.77777 0 0 0 510.10591,304.78984 Z m 2.63346,38.17057 a 79.814813,79.814813 0 0 1 78.33333,79.7933 80.555553,80.555553 0 0 1 -80.92609,79.81446 79.814813,79.814813 0 1 1 2.59276,-159.60776 z m -381.48273,68.68165 v 29.6289 h 185.18553 v -29.6289 z"
     style="stroke-width:18.5185" />
</svg>
