<?xml version="1.0" standalone="no"?>
<!DOCTYPE svg PUBLIC "-//W3C//DTD SVG 1.1//EN" "http://www.w3.org/Graphics/SVG/1.1/DTD/svg11.dtd" >
<svg xmlns="http://www.w3.org/2000/svg" xmlns:xlink="http://www.w3.org/1999/xlink" version="1.1" viewBox="-10 0 1034 1024">
   <path fill="currentColor"
d="M546 371c0 34 -8 65 -25 93s-39 50 -67 67s-58 25 -92 25s-65 -8 -93 -25s-50 -39 -67 -67s-25 -59 -25 -93s8 -64 25 -92s39 -50 67 -67s59 -25 93 -25s64 8 92 25s50 39 67 67s25 59 25 92zM379 388h83c4 0 8 -1 11 -4s5 -8 5 -13s-2 -9 -5 -12s-7 -4 -11 -4h-83v-84
c0 -4 -2 -8 -5 -11s-7 -5 -12 -5s-9 2 -12 5s-5 7 -5 11v84h-84c-4 0 -8 1 -12 4s-6 7 -6 12s2 10 6 13s8 4 12 4h84v84c0 4 2 8 5 11s7 5 12 5s9 -2 12 -5s5 -7 5 -11v-84zM739 305h-171c-5 -18 -12 -36 -22 -52h193c30 0 56 11 77 32s32 48 32 78v231c-1 20 -8 38 -22 53
l-188 189c-15 15 -33 22 -53 22h-232c-30 -1 -56 -12 -77 -33s-33 -46 -33 -76v-193c16 10 34 17 52 22v171c0 16 6 30 17 41s25 17 41 17h227v-108c0 -29 9 -55 29 -76s45 -32 74 -33h114v-227c0 -16 -6 -30 -17 -41s-25 -17 -41 -17zM762 639h-73c-16 0 -30 6 -41 16
s-17 23 -18 39v77z" />
</svg>
