<?xml version="1.0" standalone="no"?>
<!DOCTYPE svg PUBLIC "-//W3C//DTD SVG 1.1//EN" "http://www.w3.org/Graphics/SVG/1.1/DTD/svg11.dtd" >
<svg xmlns="http://www.w3.org/2000/svg" xmlns:xlink="http://www.w3.org/1999/xlink" version="1.1" viewBox="-10 0 1034 1024">
   <path fill="currentColor"
d="M752 366c6 0 11 2 16 6c78 62 128 130 128 130c3 4 5 10 5 15s-2 11 -5 15c0 0 -162 232 -379 232c-36 0 -71 -7 -104 -18c-7 -2 -12 -7 -15 -13s-3 -13 -1 -20s7 -11 13 -14s14 -3 20 -1c28 10 57 15 87 15c159 0 295 -159 325 -196c-14 -18 -47 -59 -105 -105
c-6 -4 -9 -11 -10 -18s1 -15 6 -20s12 -8 19 -8zM642 474c6 0 13 2 18 6s8 10 9 16c1 7 1 14 1 21c0 84 -69 153 -153 153c-7 0 -14 0 -21 -1s-13 -5 -17 -10s-6 -12 -5 -19s4 -13 10 -17s12 -6 19 -5c5 1 9 1 14 1c57 0 102 -45 102 -102c0 -5 0 -9 -1 -14
c-1 -7 1 -14 6 -20s11 -9 18 -9zM517 364c7 0 14 1 21 2s14 4 18 9s6 12 5 19s-4 14 -10 18s-13 5 -20 4c-5 -1 -9 -1 -14 -1c-57 0 -102 45 -102 102c0 5 0 9 1 14c1 7 -1 13 -5 19s-10 10 -17 11s-14 -2 -19 -6s-9 -10 -10 -17s-1 -14 -1 -21c0 -84 69 -153 153 -153z
M773 236c7 0 13 2 18 7s8 11 8 18s-3 13 -8 18l-512 512c-5 5 -11 8 -18 8s-13 -3 -18 -8s-8 -11 -8 -18s3 -13 8 -18l512 -512c5 -5 11 -7 18 -7zM600 336c-27 -9 -54 -15 -83 -15c-159 0 -295 159 -325 196c14 18 48 59 106 105c5 4 9 11 10 18s-2 14 -6 19s-10 8 -17 9
s-14 -1 -19 -5c-78 -62 -128 -131 -128 -131c-3 -4 -5 -10 -5 -15s2 -11 5 -15c0 0 162 -232 379 -232c36 0 71 7 104 18c10 3 19 7 28 11c6 3 11 8 14 14s3 13 0 19s-8 11 -14 14s-14 3 -20 0c-8 -3 -17 -6 -25 -9c-1 0 -3 0 -4 -1z" />
</svg>
