<?xml version="1.0" standalone="no"?>
<!DOCTYPE svg PUBLIC "-//W3C//DTD SVG 1.1//EN" "http://www.w3.org/Graphics/SVG/1.1/DTD/svg11.dtd" >
<svg xmlns="http://www.w3.org/2000/svg" xmlns:xlink="http://www.w3.org/1999/xlink" version="1.1" viewBox="-10 0 1034 1024">
   <path fill="currentColor"
d="M319 221c-24 15 -49 38 -75 69s-46 64 -63 99c-16 34 -24 65 -24 92c0 30 9 52 28 68c20 17 37 25 51 25h4c7 0 17 -3 29 -10l6 -6c18 -10 33 -17 46 -21c12 -4 24 -6 37 -6c15 0 31 3 47 8c17 4 30 13 40 27c9 10 15 23 19 39s7 31 8 45l2 46c3 36 10 64 21 83
c15 27 43 46 81 59c17 6 34 9 51 9c36 0 71 -13 104 -39c23 -18 42 -41 59 -67s29 -54 38 -83c14 -44 22 -87 22 -128c0 -45 -8 -88 -25 -130c-32 -80 -90 -141 -173 -184c-55 -28 -110 -43 -164 -43h-7c-57 1 -111 17 -162 48zM673 173c95 49 160 118 196 209
c19 48 28 98 28 149c0 46 -8 93 -23 142c-10 33 -25 65 -45 95s-42 56 -68 76c-29 23 -60 38 -92 46c-14 3 -27 4 -41 4c-23 0 -46 -4 -68 -12c-50 -17 -85 -43 -105 -80c-15 -26 -25 -60 -29 -102l-2 -46c-1 -15 -3 -27 -6 -36s-5 -16 -9 -22s-10 -10 -19 -13
c-10 -3 -20 -3 -29 -3s-17 0 -25 3c-9 3 -20 8 -34 16l-10 5c-20 12 -37 18 -54 18h-5c-23 0 -50 -13 -79 -37s-44 -58 -44 -101v-6c0 -33 10 -70 29 -111c18 -37 41 -73 70 -107s57 -61 85 -79c57 -34 119 -53 184 -55h10c62 0 123 16 185 47zM652 700c0 10 -3 19 -10 26
s-15 11 -25 11s-18 -4 -25 -11s-11 -16 -11 -26s4 -19 11 -26s15 -10 25 -10s18 3 25 10s10 16 10 26zM713 641h-1c-9 0 -17 -4 -24 -11s-11 -16 -11 -26s4 -18 11 -25s15 -11 25 -11s17 4 24 11s11 15 11 25s-4 19 -11 26s-15 11 -24 11zM748 461c0 10 -4 19 -11 26
s-14 10 -24 10s-18 -3 -25 -10s-11 -16 -11 -26s4 -19 11 -26s15 -11 25 -11s17 4 24 11s11 16 11 26zM629 388v2c-10 -1 -19 -6 -26 -12s-10 -15 -10 -25s3 -18 10 -25s16 -11 26 -11s19 4 26 11s11 15 11 25s-4 19 -11 25s-16 10 -26 10zM486 340v2c-10 0 -19 -4 -26 -11
s-11 -15 -11 -25s4 -19 11 -26s16 -11 26 -11s18 4 25 11s11 16 11 26s-4 18 -11 24s-15 10 -25 10z" />
</svg>
