<?xml version="1.0" standalone="no"?>
<!DOCTYPE svg PUBLIC "-//W3C//DTD SVG 1.1//EN" "http://www.w3.org/Graphics/SVG/1.1/DTD/svg11.dtd" >
<svg xmlns="http://www.w3.org/2000/svg" xmlns:xlink="http://www.w3.org/1999/xlink" version="1.1" viewBox="-10 0 1034 1024">
   <path fill="currentColor"
d="M295 192h438c53 0 96 43 96 96v182l26 -25c5 -5 12 -8 19 -8c15 0 26 11 26 26c0 7 -3 14 -8 19l-68 68c-5 6 -12 10 -21 10s-16 -4 -21 -10l-68 -68c-5 -5 -8 -12 -8 -19c0 -15 12 -26 27 -26c7 0 14 3 19 8l25 25v-182c0 -25 -19 -43 -44 -43h-438c-25 0 -44 18 -44 43
v88c0 15 -11 27 -26 27s-27 -12 -27 -27v-88c0 -53 44 -96 97 -96zM382 367h255c15 0 26 12 26 27s-11 26 -26 26h-255c-15 0 -26 -11 -26 -26s11 -27 26 -27zM224 455h1c9 0 16 4 21 10l67 68c5 5 9 12 9 19c0 15 -12 26 -27 26c-7 0 -14 -3 -19 -8l-25 -25v182
c0 25 19 43 44 43h438c25 0 44 -18 44 -43v-88c0 -15 11 -27 26 -27s26 12 26 27v88c0 53 -43 96 -96 96h-438c-53 0 -97 -43 -97 -96v-182l-25 25c-5 5 -12 8 -19 8c-15 0 -26 -11 -26 -26c0 -7 3 -14 8 -19l68 -68c5 -6 12 -10 20 -10zM382 481h149h1c15 0 26 12 26 27
s-11 26 -26 26h-1h-149c-15 0 -26 -11 -26 -26s11 -27 26 -27zM382 595h255c15 0 26 11 26 26s-11 27 -26 27h-255c-15 0 -26 -12 -26 -27s11 -26 26 -26z" />
</svg>
