<?xml version="1.0" standalone="no"?>
<!DOCTYPE svg PUBLIC "-//W3C//DTD SVG 1.1//EN" "http://www.w3.org/Graphics/SVG/1.1/DTD/svg11.dtd" >
<svg xmlns="http://www.w3.org/2000/svg" xmlns:xlink="http://www.w3.org/1999/xlink" version="1.1" viewBox="-10 0 1034 1024">
   <path fill="currentColor"
d="M230 610c-22 0 -40 19 -40 41v81c0 22 18 41 40 41s41 -19 41 -41v-81c0 -22 -19 -41 -41 -41zM230 834c-56 0 -102 -46 -102 -102v-81c0 -56 46 -102 102 -102s102 46 102 102v81c0 56 -46 102 -102 102zM414 243c-22 0 -41 19 -41 41v82c0 22 19 40 41 40
s40 -18 40 -40v-82c0 -22 -18 -41 -40 -41zM414 467c-56 0 -102 -45 -102 -101v-82c0 -56 46 -102 102 -102s101 46 101 102v82c0 56 -45 101 -101 101zM800 610c-22 0 -40 19 -40 41v81c0 22 18 41 40 41s41 -19 41 -41v-81c0 -22 -19 -41 -41 -41zM800 834
c-56 0 -101 -46 -101 -102v-81c0 -56 45 -102 101 -102s102 46 102 102v81c0 56 -46 102 -102 102zM831 467c-17 0 -31 -13 -31 -30v-182l-21 7c-3 1 -7 1 -10 1c-13 0 -24 -7 -28 -20c-1 -3 -1 -7 -1 -10c0 -13 7 -25 20 -29l61 -20c9 -3 20 -2 28 4s12 15 12 25v224
c0 17 -13 30 -30 30zM648 467c-17 0 -31 -13 -31 -30v-182l-21 7c-3 1 -7 1 -10 1c-13 0 -24 -7 -28 -20c-1 -3 -1 -7 -1 -10c0 -13 7 -25 20 -29l61 -20c9 -3 20 -2 28 4s12 15 12 25v224c0 17 -13 30 -30 30zM607 834c-17 0 -31 -14 -31 -31v-181l-20 7c-3 1 -6 1 -9 1
c-13 0 -26 -8 -30 -21c-1 -3 -1 -7 -1 -10c0 -13 7 -24 20 -28l61 -21c9 -3 20 -1 28 5s12 14 12 24v224c0 17 -13 31 -30 31zM444 834c-17 0 -30 -14 -30 -31v-181l-21 7c-3 1 -6 1 -9 1c-13 0 -26 -8 -30 -21c-1 -3 -1 -7 -1 -10c0 -13 7 -24 20 -28l61 -21
c9 -3 20 -1 28 5s13 14 13 24v224c0 17 -14 31 -31 31zM220 467c-17 0 -30 -13 -30 -30v-182l-21 7c-3 1 -7 1 -10 1c-13 0 -25 -7 -29 -20c-1 -3 -1 -7 -1 -10c0 -13 7 -25 20 -29l61 -20c9 -3 20 -2 28 4s13 15 13 25v224c0 17 -14 30 -31 30z" />
</svg>
