<?xml version="1.0" standalone="no"?>
<!DOCTYPE svg PUBLIC "-//W3C//DTD SVG 1.1//EN" "http://www.w3.org/Graphics/SVG/1.1/DTD/svg11.dtd" >
<svg xmlns="http://www.w3.org/2000/svg" xmlns:xlink="http://www.w3.org/1999/xlink" version="1.1" viewBox="-10 0 1034 1024">
   <path fill="currentColor"
d="M413 392c9 0 17 3 23 10s9 14 9 22v103c0 15 5 27 15 37s22 15 37 15h30v-155c0 -8 3 -15 10 -22s13 -10 22 -10s16 3 22 10s9 14 9 22v155h175c9 0 17 3 23 9s9 13 9 22s-3 16 -9 23s-14 10 -23 10h-268c-32 0 -59 -11 -81 -34s-32 -50 -32 -82v-103c0 -8 2 -15 8 -22
s13 -10 21 -10zM413 144c9 0 17 3 23 10s9 13 9 21v52h82v-52c0 -8 3 -14 10 -21s13 -10 22 -10s16 3 22 10s9 13 9 21v52h114c15 0 23 7 27 20l34 83h42c32 0 58 11 80 34s33 50 33 82v226c0 32 -11 59 -33 81s-48 33 -80 33h-42l-34 85c-4 12 -12 18 -27 18h-311
c-9 0 -16 -3 -23 -8l-122 -133c-21 -21 -31 -48 -31 -78v-133h-62v157c0 8 -3 15 -9 21s-13 9 -22 9s-16 -3 -22 -9s-9 -13 -9 -21v-354c0 -8 3 -14 9 -20s13 -9 22 -9s16 3 22 9s9 12 9 20v136h62v-136c0 -30 10 -56 33 -79s50 -34 80 -34h54v-52c0 -8 2 -14 8 -21
s13 -10 21 -10zM330 289c-13 0 -25 5 -36 16s-16 22 -16 35v330c0 15 5 27 14 36l115 121h275l34 -83c5 -13 14 -20 29 -20h62c15 0 27 -5 37 -15s15 -22 15 -37v-226c0 -15 -5 -27 -15 -38s-22 -16 -37 -16h-62c-15 0 -24 -6 -29 -18l-34 -85h-352z" />
</svg>
