<?xml version="1.0" standalone="no"?>
<!DOCTYPE svg PUBLIC "-//W3C//DTD SVG 1.1//EN" "http://www.w3.org/Graphics/SVG/1.1/DTD/svg11.dtd" >
<svg xmlns="http://www.w3.org/2000/svg" xmlns:xlink="http://www.w3.org/1999/xlink" version="1.1" viewBox="-10 0 1034 1024">
   <path fill="currentColor"
d="M434 399c-13 0 -23 -5 -32 -14s-13 -20 -13 -33s4 -24 13 -33s19 -13 32 -13h4c17 0 31 7 39 22c4 8 7 16 7 24s-3 16 -7 24c-8 15 -22 23 -40 23h-3zM270 329c0 -39 13 -73 41 -101s62 -41 101 -41h283c39 0 73 13 101 41s41 62 41 101v284c0 39 -13 72 -41 100
s-62 41 -101 41h-283c-39 0 -73 -13 -101 -41s-41 -61 -41 -100v-284zM412 234c-26 0 -50 10 -68 28s-27 41 -27 67v284c0 18 4 33 13 47l167 -165c15 -16 34 -24 57 -24s41 8 56 24l167 165c9 -14 13 -29 13 -47v-284c0 -26 -9 -49 -27 -67s-42 -28 -68 -28h-283zM743 694
l-165 -167c-8 -6 -15 -9 -24 -9s-17 3 -25 9l-165 167c14 9 30 13 48 13h283c18 0 34 -4 48 -13zM601 849h-212c-39 0 -75 -9 -108 -28s-59 -45 -78 -78s-28 -69 -28 -108v-212c0 -43 15 -78 47 -106v318c0 47 17 86 49 118s71 49 118 49h318c-28 32 -63 47 -106 47z" />
</svg>
