<?xml version="1.0" standalone="no"?>
<!DOCTYPE svg PUBLIC "-//W3C//DTD SVG 1.1//EN" "http://www.w3.org/Graphics/SVG/1.1/DTD/svg11.dtd" >
<svg xmlns="http://www.w3.org/2000/svg" xmlns:xlink="http://www.w3.org/1999/xlink" version="1.1" viewBox="-10 0 1034 1024">
   <path fill="currentColor"
d="M373 196c12 0 23 3 34 9l80 58h264c28 0 52 10 73 29s33 43 37 71l2 7v346c0 30 -10 55 -31 77s-45 35 -74 37h-505c-30 0 -56 -10 -78 -31s-34 -45 -36 -74v-417c0 -29 10 -54 31 -76s45 -34 74 -36h129zM682 308h-45v114h45v-114zM592 308h-109l-65 71
c-12 12 -26 19 -42 20h-191v317c0 18 6 33 17 46s26 20 44 22h391v-90h-22c-7 0 -13 -2 -17 -6s-6 -10 -6 -17s2 -12 6 -16s10 -6 17 -6h22v-91h-22c-7 0 -13 -2 -17 -6s-6 -9 -6 -16s2 -13 6 -17s9 -6 15 -6h24v-45h-22c-7 0 -13 -3 -17 -7s-6 -9 -6 -15v-138zM682 716h24
c6 1 11 4 15 8s6 9 6 15s-2 12 -6 16s-9 6 -15 6h-24v23h69c17 0 31 -6 44 -17s21 -26 23 -44v-346c0 -17 -6 -32 -17 -45s-27 -21 -45 -22l-29 -2v136c0 7 -2 13 -6 17s-9 7 -15 7h-24v112h24c6 0 11 2 15 7s6 10 6 16s-2 12 -6 17s-9 7 -15 7h-24v89zM373 241h-120
c-18 0 -33 7 -46 18s-20 26 -22 44v51h184c5 1 9 0 13 -4l60 -63l-55 -42c-4 -1 -7 -3 -11 -4h-3z" />
</svg>
