<?xml version="1.0" standalone="no"?>
<!DOCTYPE svg PUBLIC "-//W3C//DTD SVG 1.1//EN" "http://www.w3.org/Graphics/SVG/1.1/DTD/svg11.dtd" >
<svg xmlns="http://www.w3.org/2000/svg" xmlns:xlink="http://www.w3.org/1999/xlink" version="1.1" viewBox="-10 0 1034 1024">
   <path fill="currentColor"
d="M582 496c16 18 29 43 38 77l9 48c3 14 6 24 9 31c10 23 29 47 55 71c8 7 10 15 8 25s-8 16 -18 19s-18 1 -25 -6c-32 -29 -54 -57 -67 -87c-4 -11 -9 -25 -12 -41l-8 -40c-6 -29 -15 -49 -27 -61c-10 -10 -25 -16 -43 -16h-8c-22 2 -36 9 -44 21c-10 16 -16 37 -18 61
c0 4 -1 8 -1 12c0 20 4 41 11 62c11 41 26 81 46 119c6 9 6 17 0 26c-5 9 -14 14 -24 13s-18 -6 -22 -16c-21 -41 -38 -83 -50 -127c-8 -26 -12 -51 -12 -76c0 -7 0 -14 1 -21c3 -31 11 -58 24 -80c11 -18 28 -30 50 -38c14 -5 28 -7 42 -7c8 0 17 1 26 2c24 4 44 14 60 29z
M500 576c8 -1 14 1 19 6s7 11 7 19c2 54 19 103 50 147l18 23c4 6 6 11 5 18s-4 13 -9 17s-11 6 -18 6s-12 -2 -16 -6l-13 -17c-43 -55 -66 -117 -68 -186c0 -8 3 -14 8 -19s10 -8 17 -8zM373 402c35 -26 74 -41 117 -42h5c41 0 77 11 109 31c33 21 57 46 72 72
c3 7 5 12 3 19s-6 12 -12 16s-12 5 -19 3s-13 -5 -16 -12c-12 -20 -30 -38 -55 -54c-24 -15 -51 -23 -81 -23h-5c-32 1 -62 11 -88 31s-46 46 -59 80c-10 27 -15 56 -15 85c0 8 0 15 1 23c4 42 18 85 40 129c2 6 2 12 0 19s-7 11 -13 14s-12 3 -19 1s-12 -6 -15 -11
c-25 -49 -40 -98 -44 -146c-1 -11 -1 -21 -1 -31c0 -36 5 -70 17 -102c16 -43 43 -77 78 -102zM688 548c8 0 14 3 19 8s8 10 9 17c1 21 6 38 15 51c7 11 13 19 20 22h1c7 2 12 6 15 12s4 13 2 20s-7 13 -13 16s-12 3 -19 1c-19 -5 -35 -19 -49 -41s-23 -48 -25 -78
c0 -8 3 -14 8 -19s10 -8 17 -9zM432 288c3 7 4 13 1 20s-7 11 -14 14c-63 29 -109 69 -140 122c-19 32 -31 67 -38 104c-3 19 -5 39 -5 58c0 16 1 31 3 46c1 8 -1 15 -5 20s-10 9 -17 10s-14 -1 -19 -5c-6 -4 -9 -10 -10 -18c-2 -18 -4 -37 -4 -55c0 -21 2 -42 6 -64
c9 -44 23 -85 44 -122c36 -63 91 -110 164 -143c7 -2 12 -2 19 0s12 6 15 13zM513 261c63 1 125 29 187 85s100 131 113 227c2 10 -1 18 -9 24s-17 7 -26 3s-15 -10 -16 -20c-11 -82 -43 -148 -96 -195s-106 -72 -155 -73c-7 0 -12 -2 -17 -7s-7 -11 -7 -18s2 -13 7 -18
s11 -8 19 -8zM277 261c4 5 7 12 6 19s-4 14 -9 18c-9 8 -18 16 -28 28s-20 27 -30 43c-4 9 -11 13 -21 13s-18 -4 -23 -13s-5 -17 0 -25c10 -19 21 -36 34 -51c12 -12 24 -23 35 -33c4 -5 10 -9 17 -8s14 3 19 9zM503 159c76 3 139 24 190 64c5 4 9 11 10 18s-1 14 -5 19
c-4 6 -10 9 -17 10s-14 -1 -19 -5c-42 -33 -96 -52 -162 -55h-13c-56 0 -106 12 -149 35c-7 3 -13 4 -20 2s-11 -5 -15 -11s-6 -12 -4 -19s6 -13 13 -17c48 -28 104 -41 170 -41h21z" />
</svg>
