<?xml version="1.0" standalone="no"?>
<!DOCTYPE svg PUBLIC "-//W3C//DTD SVG 1.1//EN" "http://www.w3.org/Graphics/SVG/1.1/DTD/svg11.dtd" >
<svg xmlns="http://www.w3.org/2000/svg" xmlns:xlink="http://www.w3.org/1999/xlink" version="1.1" viewBox="-10 0 1034 1024">
   <path fill="currentColor"
d="M241 165h216c24 0 45 8 62 25s25 38 25 62v172c0 24 -8 45 -25 62s-38 25 -62 25h-216c-24 0 -44 -8 -61 -25s-25 -38 -25 -62v-172c0 -24 8 -45 25 -62s37 -25 61 -25zM264 381c-7 0 -12 2 -16 6s-7 10 -7 16s3 11 7 15s9 6 16 6h173c6 0 10 -2 14 -6s6 -9 6 -15
s-2 -12 -6 -16s-8 -6 -14 -6h-173zM241 272v2c0 6 3 11 7 15s9 6 16 6h173c6 0 10 -2 14 -6s6 -10 6 -16s-2 -11 -6 -15s-8 -6 -14 -6h-173c-7 0 -12 2 -16 6s-7 8 -7 14zM241 726v-172h44v172c0 16 4 31 12 44l202 -197c13 -13 28 -19 45 -19s31 6 44 19l202 197
c8 -13 13 -28 13 -44v-345c0 -24 -8 -44 -25 -61s-38 -25 -62 -25h-129v-43h129c36 0 67 13 92 38s38 55 38 91v345c0 36 -13 67 -38 92s-56 38 -92 38h-345c-36 0 -67 -13 -92 -38s-38 -56 -38 -92zM371 813h345c16 0 30 -4 43 -12l-200 -197c-5 -5 -9 -7 -15 -7
s-11 2 -16 7l-200 197c13 8 27 12 43 12zM673 445c0 -6 -2 -11 -6 -15s-10 -6 -16 -6s-11 2 -15 6s-6 10 -6 16s2 11 6 15s9 7 15 7s12 -3 16 -7s6 -8 6 -14v-2zM651 511c-18 0 -33 -7 -45 -19c-13 -13 -19 -28 -19 -46s6 -33 19 -46s27 -19 45 -19s33 6 46 19s19 28 19 46
s-6 33 -19 46c-12 12 -28 19 -46 19z" />
</svg>
