<?xml version="1.0" standalone="no"?>
<!DOCTYPE svg PUBLIC "-//W3C//DTD SVG 1.1//EN" "http://www.w3.org/Graphics/SVG/1.1/DTD/svg11.dtd" >
<svg xmlns="http://www.w3.org/2000/svg" xmlns:xlink="http://www.w3.org/1999/xlink" version="1.1" viewBox="-10 0 1034 1024">
   <path fill="currentColor"
d="M358 628c0 -8 3 -17 9 -23s15 -9 23 -9h151c8 0 17 2 23 8s9 13 9 21s-3 17 -9 23s-15 9 -23 9h-151c-8 0 -16 -2 -22 -8s-10 -13 -10 -21zM358 505c0 -8 3 -17 9 -23s15 -9 23 -9h244c8 0 16 2 22 8s10 13 10 21s-4 17 -10 23s-14 9 -22 9h-244c-8 0 -16 -2 -22 -8
s-10 -13 -10 -21zM358 382c0 -8 3 -17 9 -23s15 -9 23 -9h244c8 0 16 2 22 8s10 13 10 21s-4 17 -10 23s-14 9 -22 9h-244c-8 0 -16 -2 -22 -8s-10 -13 -10 -21zM181 329c6 -6 14 -10 23 -10s17 4 23 10l69 69c6 5 9 13 9 21s-3 16 -8 22c-6 6 -13 9 -22 9s-17 -3 -23 -9
l-17 -17v324c0 8 3 17 9 23s15 10 23 10h551c8 0 17 2 23 8s9 13 9 21s-3 17 -9 23s-15 9 -23 9h-549c-25 0 -49 -9 -68 -28s-28 -43 -28 -68v-322l-17 17c-5 6 -13 10 -21 10s-16 -3 -22 -8c-6 -6 -10 -14 -10 -23s4 -16 10 -22zM173 197c0 -8 4 -17 10 -23s14 -9 22 -9
h549c25 0 49 9 68 28s28 43 28 68v322l18 -17c5 -6 13 -10 21 -10s16 3 22 8c6 6 9 14 9 23s-3 16 -9 22l-69 69c-6 6 -13 10 -22 10s-17 -4 -23 -10l-69 -69c-6 -5 -10 -13 -10 -21s3 -16 8 -22c6 -6 14 -9 23 -9s17 3 23 9l17 17v-324c0 -8 -4 -17 -10 -23s-14 -9 -22 -9
h-552c-8 0 -16 -3 -22 -9s-10 -13 -10 -21z" />
</svg>
