<?xml version="1.0" standalone="no"?>
<!DOCTYPE svg PUBLIC "-//W3C//DTD SVG 1.1//EN" "http://www.w3.org/Graphics/SVG/1.1/DTD/svg11.dtd" >
<svg xmlns="http://www.w3.org/2000/svg" xmlns:xlink="http://www.w3.org/1999/xlink" version="1.1" viewBox="-10 0 1034 1024">
   <path fill="currentColor"
d="M732 816v-55c22 0 39 -5 50 -14s20 -24 26 -47c4 -13 8 -31 10 -54s4 -43 5 -61s6 -35 13 -52s17 -27 29 -33c-8 -4 -14 -9 -20 -17s-10 -18 -13 -29s-5 -21 -7 -31s-4 -23 -5 -37c-1 -17 -2 -30 -3 -41s-3 -23 -5 -34s-4 -21 -7 -28s-7 -14 -11 -20s-9 -12 -15 -15
s-12 -6 -20 -8s-16 -3 -26 -3v-56c21 0 38 3 54 8s29 11 39 20c10 8 19 20 26 34s14 30 18 46s8 35 11 58l6 42c4 27 9 47 16 59s17 18 32 18v66c-16 0 -27 6 -34 18s-11 30 -14 57l-4 47c-2 14 -3 26 -5 36s-4 21 -7 33s-8 23 -12 31s-10 16 -18 25c-7 8 -16 15 -26 20
s-22 10 -36 13s-30 4 -47 4zM452 791v-23c15 0 29 -5 41 -16s18 -23 18 -38c-14 0 -27 -6 -36 -16s-14 -22 -14 -37s5 -27 14 -37s21 -16 36 -16c14 0 26 6 35 18s14 26 14 43c0 19 -4 38 -12 57s-18 35 -32 47s-29 19 -44 19c-10 0 -17 0 -20 -1zM558 390
c0 15 -4 28 -13 38c-8 10 -19 15 -34 15c-14 0 -26 -5 -35 -15s-13 -23 -13 -38s4 -27 13 -37s20 -15 35 -15c14 0 25 5 34 15s13 22 13 37zM285 181v56c-23 0 -40 4 -52 14s-20 28 -25 53c-5 15 -8 31 -11 50s-6 35 -7 48s-3 25 -6 38s-8 24 -15 33s-15 15 -26 20
c11 4 20 12 27 22s12 22 15 36s5 28 7 41s3 28 5 45s4 29 6 39c5 29 13 50 25 64s32 21 57 21v55c-39 0 -70 -7 -93 -22s-39 -39 -49 -72c-2 -8 -4 -21 -5 -38s-2 -34 -3 -50s-4 -33 -7 -49s-8 -28 -16 -38s-18 -15 -30 -15v-66c19 0 33 -13 41 -40c4 -12 7 -36 12 -73v-2
c1 -10 3 -19 4 -25s2 -15 4 -25s5 -19 7 -26s6 -15 10 -24s9 -17 14 -23s11 -13 18 -19s15 -11 24 -15s19 -7 31 -9s24 -4 38 -4z" />
</svg>
