<?xml version="1.0" standalone="no"?>
<!DOCTYPE svg PUBLIC "-//W3C//DTD SVG 1.1//EN" "http://www.w3.org/Graphics/SVG/1.1/DTD/svg11.dtd" >
<svg xmlns="http://www.w3.org/2000/svg" xmlns:xlink="http://www.w3.org/1999/xlink" version="1.1" viewBox="-10 0 1034 1024">
   <path fill="currentColor"
d="M657 596l-38 -71l66 -31h-1l-71 -35l34 -64l-79 15l-9 -73v1l-55 58l-51 -54v1l-10 79l-73 -13l1 1l38 70l-66 31h1l72 35l-35 65l1 -1l78 -15l10 73v-1l55 -58l50 53l11 -79zM665 598l139 191l-89 65l-135 -185v236h-110v-229l-139 191l-89 -65l135 -186l-225 73
l-34 -104l218 -71l-225 -73l34 -105l218 71l-138 -191l89 -65l134 186v-237h111v230l139 -192l89 65l-135 186l225 -73l34 104l-219 71l225 73l-34 105z" />
</svg>
