<?xml version="1.0" standalone="no"?>
<!DOCTYPE svg PUBLIC "-//W3C//DTD SVG 1.1//EN" "http://www.w3.org/Graphics/SVG/1.1/DTD/svg11.dtd" >
<svg xmlns="http://www.w3.org/2000/svg" xmlns:xlink="http://www.w3.org/1999/xlink" version="1.1" viewBox="-10 0 1034 1024">
   <path fill="currentColor"
d="M703 389c20 0 37 17 37 37v93h27c17 0 28 14 28 28c0 6 -2 13 -7 18l-61 72c-6 8 -15 11 -24 11s-18 -3 -24 -11l-61 -72c-5 -5 -7 -12 -7 -18c0 -14 11 -28 28 -28h27v-93c0 -20 17 -37 37 -37zM291 389h2c16 0 31 8 40 21l60 87l54 -86c9 -14 25 -22 41 -22
c27 0 49 23 49 50v172c0 20 -17 37 -37 37s-36 -17 -36 -37v-125l-41 55c-7 10 -18 15 -29 15c-12 0 -23 -6 -31 -16l-47 -64v135c0 20 -17 37 -37 37s-37 -17 -37 -37v-172c0 -27 22 -50 49 -50zM215 316c-26 0 -46 20 -46 46v313c0 26 20 46 46 46h608c26 0 46 -20 46 -46
v-313c0 -26 -20 -46 -46 -46h-608zM215 260h608c56 0 101 46 101 102v313c0 56 -45 102 -101 102h-608c-56 0 -102 -46 -102 -102v-313c0 -56 46 -102 102 -102z" />
</svg>
