<?xml version="1.0" standalone="no"?>
<!DOCTYPE svg PUBLIC "-//W3C//DTD SVG 1.1//EN" "http://www.w3.org/Graphics/SVG/1.1/DTD/svg11.dtd" >
<svg xmlns="http://www.w3.org/2000/svg" xmlns:xlink="http://www.w3.org/1999/xlink" version="1.1" viewBox="-10 0 1034 1024">
   <path fill="currentColor"
d="M463 304c7 1 12 5 16 12s5 13 4 20l-16 77h136l18 -88c1 -7 5 -13 12 -17s14 -5 21 -4s13 5 17 12s6 13 5 20l-18 77h46c7 0 14 3 19 8s8 12 8 20s-3 14 -8 19s-12 8 -19 8h-57l-24 110h53c7 0 13 2 18 7s8 12 8 20s-3 15 -8 20s-11 8 -18 8h-64l-20 87
c-1 10 -7 17 -17 21s-20 2 -28 -5s-10 -17 -7 -27l15 -76h-136l-17 87c-1 7 -6 14 -13 18s-13 5 -20 4s-14 -5 -18 -12s-5 -14 -4 -21l17 -76h-44c-9 0 -15 -3 -20 -8s-8 -12 -8 -20s3 -15 8 -20s11 -7 18 -7h57l24 -110h-52c-7 0 -14 -3 -19 -8s-8 -11 -8 -19s3 -15 8 -20
s12 -8 19 -8h63l20 -88c1 -7 5 -13 12 -17s14 -5 21 -4zM432 578h136l22 -110h-136zM127 275c0 -37 14 -68 41 -95s58 -41 95 -41h496c37 0 69 14 96 41s40 59 40 97v492c0 38 -13 70 -40 97s-60 41 -98 41h-491c-38 0 -71 -14 -98 -41s-41 -58 -41 -95v-496zM266 194
c-23 0 -44 8 -60 24s-24 36 -24 59v492c0 23 8 43 24 59s37 24 60 24h493c22 0 41 -8 57 -24s24 -36 24 -59v-494c0 -22 -8 -41 -24 -57s-36 -24 -59 -24h-491z" />
</svg>
