<?xml version="1.0" standalone="no"?>
<!DOCTYPE svg PUBLIC "-//W3C//DTD SVG 1.1//EN" "http://www.w3.org/Graphics/SVG/1.1/DTD/svg11.dtd" >
<svg xmlns="http://www.w3.org/2000/svg" xmlns:xlink="http://www.w3.org/1999/xlink" version="1.1" viewBox="-10 0 1034 1024">
   <path fill="currentColor"
d="M671 380c0 -7 -3 -14 -8 -19s-12 -8 -20 -8s-14 3 -19 8s-8 12 -8 20s3 15 8 20s11 7 19 7s15 -2 20 -7s8 -12 8 -19v-2zM122 299c0 -45 17 -85 49 -117s71 -48 116 -48h439c45 0 84 16 116 48s48 72 48 117v438c0 45 -16 85 -48 117s-71 48 -116 48h-439
c-45 0 -84 -16 -116 -48s-49 -72 -49 -117v-438zM287 189c-31 0 -57 11 -78 32s-32 47 -32 78v438c0 20 6 39 16 57l256 -252c16 -16 35 -24 57 -24s41 8 57 24l257 250c10 -16 15 -35 15 -55v-438c0 -31 -11 -57 -32 -78s-46 -32 -77 -32h-439zM287 847h439
c20 0 38 -5 54 -15l-254 -250c-6 -6 -13 -9 -20 -9s-14 3 -20 9l-254 250c16 10 35 15 55 15zM726 381c0 23 -9 42 -25 58s-35 24 -58 24s-42 -8 -58 -24s-24 -35 -24 -58s8 -42 24 -58s35 -24 58 -24s42 8 58 24s25 35 25 58z" />
</svg>
