<?xml version="1.0" standalone="no"?>
<!DOCTYPE svg PUBLIC "-//W3C//DTD SVG 1.1//EN" "http://www.w3.org/Graphics/SVG/1.1/DTD/svg11.dtd" >
<svg xmlns="http://www.w3.org/2000/svg" xmlns:xlink="http://www.w3.org/1999/xlink" version="1.1" viewBox="-10 0 1034 1024">
   <path fill="currentColor"
d="M871 503v-2c0 -51 -6 -101 -19 -148c-13 -49 -32 -97 -56 -140c-2 -4 -3 -7 -4 -11c0 -1 -1 -3 -1 -5s1 -3 1 -4c1 -2 2 -5 4 -7l6 -5l37 -20c18 27 33 55 47 85c13 27 23 57 31 86c8 28 14 56 18 85c4 28 6 57 6 86s-1 57 -5 85c-4 29 -10 59 -18 86
c-8 29 -19 58 -32 85c-14 30 -29 58 -47 85l-36 -21l-6 -5c-2 -2 -3 -4 -4 -6c0 -1 -1 -2 -1 -4s1 -4 1 -5c1 -4 2 -8 4 -12c24 -43 43 -89 56 -137c12 -47 18 -96 18 -146v-5zM762 451l-23 40l-75 -43l-15 -9c-4 -3 -8 -7 -11 -11c3 8 4 17 4 26v6v85h-43v-85v-2
c0 -11 2 -20 5 -30c-7 8 -14 15 -24 20l-75 43l-23 -40l74 -43c10 -6 21 -11 32 -13c-12 -2 -23 -5 -32 -11l-76 -44l23 -40l75 43l14 10c4 3 8 8 11 12c-3 -8 -4 -17 -4 -26v-7v-86h43v86v8v9c-1 5 -2 10 -4 15c7 -8 15 -15 25 -21l74 -42l23 40l-74 43l-15 7
c-5 2 -10 3 -15 4c5 1 10 3 15 5s10 5 15 8zM300 653v-1c0 -9 2 -17 5 -25s7 -14 13 -20c12 -12 28 -19 46 -19c9 0 17 2 25 5c15 7 27 19 34 34c3 8 5 16 5 25v1c0 9 -2 17 -5 25s-8 14 -14 20s-12 11 -20 14s-16 5 -25 5s-18 -2 -26 -5s-14 -8 -20 -14
c-11 -12 -18 -27 -18 -44v-1zM156 503v1c0 51 6 102 19 149c13 48 33 94 57 136c2 4 3 7 4 11c0 1 1 3 1 5s-1 3 -1 4c-1 2 -2 5 -4 7l-6 5l-36 21c-18 -27 -33 -56 -47 -86c-13 -27 -24 -56 -32 -85c-8 -28 -13 -56 -17 -85s-6 -60 -6 -90s2 -58 6 -87s9 -58 17 -86
c8 -29 19 -58 32 -85c14 -27 29 -53 46 -77l36 22l6 4c2 2 3 5 4 7v4v5c-1 4 -2 7 -4 11c-47 84 -75 182 -75 285v4z" />
</svg>
