<?xml version="1.0" standalone="no"?>
<!DOCTYPE svg PUBLIC "-//W3C//DTD SVG 1.1//EN" "http://www.w3.org/Graphics/SVG/1.1/DTD/svg11.dtd" >
<svg xmlns="http://www.w3.org/2000/svg" xmlns:xlink="http://www.w3.org/1999/xlink" version="1.1" viewBox="-10 0 1034 1024">
   <path fill="currentColor"
d="M437 512c0 19 6 34 18 46s28 19 47 19s34 -7 47 -19s20 -27 20 -46s-7 -35 -20 -48s-28 -19 -47 -19s-35 6 -47 19s-18 29 -18 48zM393 512c0 -30 11 -57 32 -79s47 -32 77 -32s56 10 77 32c22 22 33 49 33 81c0 29 -11 54 -32 75c-22 21 -48 31 -78 32h-2
c-29 0 -54 -10 -75 -31c-21 -22 -32 -48 -32 -78zM193 396l58 49c20 18 30 40 30 67s-10 48 -30 66l-58 49c13 34 31 65 54 93l71 -24c11 -4 21 -6 31 -6c15 0 28 4 42 12c23 13 37 34 42 61l15 73c18 3 36 5 54 5s36 -2 54 -5l14 -73c5 -27 20 -48 43 -61
c14 -8 27 -12 42 -12c10 0 20 2 31 6l70 24c23 -28 42 -59 55 -93l-58 -49c-20 -18 -30 -39 -30 -66s10 -49 30 -67l58 -49c-13 -34 -32 -65 -55 -93l-70 24c-11 4 -21 6 -31 6c-15 0 -28 -4 -42 -12c-23 -13 -38 -33 -43 -60l-14 -74c-18 -3 -36 -5 -54 -5s-36 2 -54 5
l-15 74c-5 27 -19 47 -42 60c-14 8 -27 12 -42 12c-10 0 -20 -2 -31 -6l-71 -24c-23 28 -41 59 -54 93zM147 397c16 -51 43 -96 78 -135c7 -8 15 -11 24 -7l84 30c5 2 11 3 16 3c7 0 14 -1 21 -5c12 -6 19 -17 21 -31l16 -88c1 -9 7 -16 18 -18l77 -7c26 0 51 2 77 7
c11 2 17 9 18 18l16 88c2 14 9 25 21 31c7 4 13 5 20 5c5 0 11 -1 16 -3l85 -30c9 -4 17 -1 24 7c35 39 61 84 77 135c4 9 1 17 -7 23l-66 58c-11 8 -16 20 -16 34s5 25 16 33l66 58c8 6 11 14 7 23c-16 51 -42 96 -77 135c-7 8 -15 11 -24 7l-85 -30c-5 -2 -11 -3 -16 -3
c-7 0 -13 2 -20 6c-12 6 -19 16 -21 30l-16 88c-1 9 -7 16 -18 18l-77 8c-26 0 -51 -3 -77 -8c-11 -2 -17 -9 -18 -18l-16 -88c-2 -14 -9 -24 -21 -30c-7 -4 -14 -6 -21 -6c-5 0 -11 1 -16 3l-84 30c-9 4 -17 1 -24 -7c-35 -39 -62 -84 -78 -135c-4 -9 -1 -17 7 -23l67 -58
c11 -8 16 -19 16 -33s-5 -26 -16 -34l-67 -58c-8 -6 -11 -14 -7 -23z" />
</svg>
