<?xml version="1.0" standalone="no"?>
<!DOCTYPE svg PUBLIC "-//W3C//DTD SVG 1.1//EN" "http://www.w3.org/Graphics/SVG/1.1/DTD/svg11.dtd" >
<svg xmlns="http://www.w3.org/2000/svg" xmlns:xlink="http://www.w3.org/1999/xlink" version="1.1" viewBox="-10 0 1034 1024">
   <path fill="currentColor"
d="M192 437c0 -14 0 -24 1 -36c1 -7 2 -15 6 -22c-2 -5 -4 -10 -5 -14c-2 -8 -2 -15 -2 -24v-19v-148v-19c0 -9 0 -16 2 -24c2 -10 8 -23 19 -30c8 -5 17 -6 25 -7c9 -1 21 -1 35 -1h492c14 0 23 0 35 1c8 1 17 2 25 7c11 7 17 20 19 30c2 8 2 15 2 24v19v148
c0 14 0 24 -1 36c-1 7 -2 15 -6 22c2 5 4 10 5 14c2 8 2 15 2 24v19v148c0 14 0 23 -1 35c-1 7 -2 15 -6 22c2 5 4 10 5 14c2 8 2 15 2 24v19v149c0 14 0 23 -1 35c-1 8 -3 17 -8 25c-7 11 -20 17 -30 19c-8 2 -15 2 -23 2h-19h-492h-19c-9 0 -16 0 -24 -2
c-10 -2 -22 -8 -29 -19c-5 -8 -7 -17 -8 -25c-1 -9 -1 -21 -1 -35v-149c0 -14 0 -23 1 -35c1 -7 2 -15 6 -22c-4 -7 -5 -15 -6 -22c-1 -9 -1 -21 -1 -35v-148zM240 437v148c0 15 0 23 1 32c4 1 9 1 14 1h18h492h18c5 0 10 0 14 -1c1 -9 1 -17 1 -32v-148c0 -15 0 -24 -1 -33
c-4 -1 -9 -1 -13 -1h-19h-492h-19c-5 0 -9 0 -13 1c-1 9 -1 18 -1 33zM240 699v149c0 15 0 23 1 32c9 1 17 1 32 1h492c15 0 23 0 32 -1c1 -9 1 -17 1 -32v-149c0 -15 0 -23 -1 -32c-4 -1 -9 -1 -14 -1h-18h-492h-18s-10 0 -14 1c-1 9 -1 17 -1 32zM240 174v148
c0 15 0 23 1 32c4 1 9 1 13 1h19h492h19c5 0 9 0 13 -1c1 -9 1 -17 1 -32v-148c0 -15 0 -23 -1 -32c-9 -1 -17 -1 -32 -1h-492c-15 0 -23 0 -32 1c-1 9 -1 17 -1 32z" />
</svg>
