<?xml version="1.0" standalone="no"?>
<!DOCTYPE svg PUBLIC "-//W3C//DTD SVG 1.1//EN" "http://www.w3.org/Graphics/SVG/1.1/DTD/svg11.dtd" >
<svg xmlns="http://www.w3.org/2000/svg" xmlns:xlink="http://www.w3.org/1999/xlink" version="1.1" viewBox="-10 0 1034 1024">
   <path fill="currentColor"
d="M526 380v272h22c6 0 11 2 16 6s7 10 6 17s-3 12 -7 16s-9 6 -15 6h-91c-6 0 -11 -2 -15 -6s-6 -9 -7 -16s1 -13 6 -17s10 -6 16 -6h24v-272h-69v24c0 6 -2 11 -6 15s-10 7 -17 7s-12 -3 -16 -7s-6 -10 -6 -17v-45c0 -6 2 -12 6 -16s10 -6 17 -6h227c6 0 11 2 15 6
s6 10 6 16v47c0 6 -2 11 -6 15s-9 7 -16 7s-13 -3 -17 -7s-6 -10 -6 -17v-22h-67zM140 380c0 -37 13 -69 40 -96s59 -40 96 -40h453c37 0 69 13 96 40s40 59 40 96v272c0 37 -13 69 -40 96s-59 40 -96 40h-453c-37 0 -69 -13 -96 -40s-40 -59 -40 -96v-272zM276 290
c-25 0 -46 8 -64 26s-27 39 -27 64v272c0 25 9 46 27 64s39 27 64 27h453c25 0 46 -9 64 -27s27 -39 27 -64v-272c0 -25 -9 -46 -27 -64s-39 -26 -64 -26h-453z" />
</svg>
