<?xml version="1.0" standalone="no"?>
<!DOCTYPE svg PUBLIC "-//W3C//DTD SVG 1.1//EN" "http://www.w3.org/Graphics/SVG/1.1/DTD/svg11.dtd" >
<svg xmlns="http://www.w3.org/2000/svg" xmlns:xlink="http://www.w3.org/1999/xlink" version="1.1" viewBox="-10 0 1034 1024">
   <path fill="currentColor"
d="M222 224c0 -9 3 -17 9 -23s14 -9 23 -9h523c9 0 17 3 23 9s9 14 9 23v85c0 8 -3 15 -9 21s-13 9 -22 9s-17 -3 -23 -9s-9 -13 -9 -21v-53h-198v543h62c8 0 15 3 22 10s10 14 10 23s-3 16 -10 22s-14 9 -22 9h-189c-8 0 -15 -3 -22 -9s-10 -13 -9 -22s4 -16 10 -23
s13 -10 21 -10h62v-543h-199v53c0 8 -3 15 -9 21s-13 9 -22 9s-16 -3 -22 -9s-9 -13 -9 -21v-85z" />
</svg>
