<?xml version="1.0" standalone="no"?>
<!DOCTYPE svg PUBLIC "-//W3C//DTD SVG 1.1//EN" "http://www.w3.org/Graphics/SVG/1.1/DTD/svg11.dtd" >
<svg xmlns="http://www.w3.org/2000/svg" xmlns:xlink="http://www.w3.org/1999/xlink" version="1.1" viewBox="-10 0 1034 1024">
   <path fill="currentColor"
d="M486 871c0 -5 2 -9 6 -13s8 -6 13 -6h25c5 0 9 2 13 6s6 8 6 13v25c0 5 -2 9 -6 13s-8 6 -13 6h-25c-5 0 -9 -2 -13 -6s-6 -8 -6 -13v-25zM486 746c0 -5 2 -9 6 -13s8 -6 13 -6h25c5 0 9 2 13 6s6 8 6 13v25c0 5 -2 9 -6 13s-8 6 -13 6h-25c-5 0 -9 -2 -13 -6
s-6 -8 -6 -13v-25zM486 621c0 -5 2 -9 6 -13s8 -6 13 -6h25c5 0 9 2 13 6s6 8 6 13v25c0 5 -2 9 -6 13s-8 6 -13 6h-25c-5 0 -9 -2 -13 -6s-6 -8 -6 -13v-25zM486 496c0 -5 2 -9 6 -13s8 -6 13 -6h25c5 0 9 2 13 6s6 8 6 13v25c0 5 -2 9 -6 13s-8 6 -13 6h-25
c-5 0 -9 -2 -13 -6s-6 -8 -6 -13v-25zM486 371c0 -5 2 -9 6 -13s8 -6 13 -6h25c5 0 9 2 13 6s6 8 6 13v25c0 5 -2 9 -6 13s-8 6 -13 6h-25c-5 0 -9 -2 -13 -6s-6 -8 -6 -13v-25zM486 246c0 -5 2 -9 6 -13s8 -6 13 -6h25c5 0 9 2 13 6s6 8 6 13v25c0 5 -2 9 -6 13s-8 6 -13 6
h-25c-5 0 -9 -2 -13 -6s-6 -8 -6 -13v-25zM611 121c0 -5 2 -9 6 -13s8 -6 13 -6h124c20 0 39 8 54 23s22 34 22 54v663c0 19 -7 38 -21 52s-33 21 -52 21h-128c-4 0 -9 -2 -12 -5s-6 -9 -6 -13v-26c0 -5 2 -9 6 -13s8 -6 13 -6h122c4 0 8 -1 11 -4s5 -7 5 -11v-652
c0 -5 -2 -10 -6 -14s-10 -6 -15 -6h-115c-5 0 -11 -2 -15 -6s-6 -9 -6 -14v-24zM486 121c0 -5 2 -9 6 -13s8 -6 13 -6h25c5 0 9 2 13 6s6 8 6 13v25c0 5 -2 9 -6 13s-8 6 -13 6h-25c-5 0 -9 -2 -13 -6s-6 -8 -6 -13v-25zM205 175c0 -19 8 -37 22 -51s32 -22 51 -22h128
c4 0 10 2 13 5s5 9 5 13v27c0 5 -1 9 -5 13s-8 5 -13 5h-123c-4 0 -8 1 -11 4s-4 7 -4 11v652c0 5 2 10 6 14s9 6 14 6h114c6 0 11 3 15 7s7 9 7 15v25c0 4 -2 8 -5 11s-7 5 -11 5h-126c-20 0 -39 -7 -54 -22s-23 -35 -23 -55v-663z" />
</svg>
