<?xml version="1.0" standalone="no"?>
<!DOCTYPE svg PUBLIC "-//W3C//DTD SVG 1.1//EN" "http://www.w3.org/Graphics/SVG/1.1/DTD/svg11.dtd" >
<svg xmlns="http://www.w3.org/2000/svg" xmlns:xlink="http://www.w3.org/1999/xlink" version="1.1" viewBox="-10 0 1034 1024">
   <path fill="currentColor"
d="M320 159c10 0 17 5 20 14l111 286l-22 59l-21 -49h-177l-41 102c-2 6 -6 10 -11 12s-10 2 -16 0s-10 -6 -12 -11s-2 -10 0 -16l148 -383c3 -9 11 -14 21 -14zM246 426h147l-73 -187zM595 300l191 497h24c6 0 10 2 14 6s6 10 6 16s-2 11 -6 15s-8 6 -14 6h-87
c-6 0 -10 -2 -14 -6s-6 -9 -6 -15s2 -12 6 -16s9 -6 16 -6h15l-49 -127h-228l-48 127h12c6 0 10 2 14 6s6 10 6 16s-2 11 -6 15s-8 6 -14 6h-87c-6 0 -10 -2 -14 -6s-6 -9 -6 -15s2 -12 6 -16s9 -6 16 -6h27l185 -497c3 -9 11 -13 21 -13s17 4 20 13zM674 627l-99 -258
l-97 258h196z" />
</svg>
