<?xml version="1.0" standalone="no"?>
<!DOCTYPE svg PUBLIC "-//W3C//DTD SVG 1.1//EN" "http://www.w3.org/Graphics/SVG/1.1/DTD/svg11.dtd" >
<svg xmlns="http://www.w3.org/2000/svg" xmlns:xlink="http://www.w3.org/1999/xlink" version="1.1" viewBox="-10 0 1034 1024">
   <path fill="currentColor"
d="M512 790c7 0 14 3 20 8s8 11 8 18l2 61c0 7 -2 13 -8 19s-13 8 -20 9s-14 -1 -20 -6s-10 -12 -11 -19v-60c0 -9 2 -15 8 -21s12 -9 21 -9zM742 711l41 41c6 6 9 13 9 20s-2 13 -8 19s-13 9 -21 9s-15 -3 -21 -8l-40 -40c-9 -7 -12 -17 -9 -28s11 -18 22 -21s20 -1 27 8z
M323 711c5 5 8 12 8 20s-3 15 -8 21l-42 40c-7 9 -17 12 -28 9s-18 -11 -20 -22s1 -20 8 -27l40 -41c6 -6 13 -9 21 -9s15 3 21 9zM512 311c38 0 74 9 106 28s58 45 77 77s29 68 29 106s-10 74 -29 106s-45 58 -77 77s-68 28 -106 28s-73 -9 -105 -28s-58 -45 -77 -77
s-29 -68 -29 -106s10 -74 29 -106s45 -58 77 -77s67 -28 105 -28zM512 368c-43 0 -79 15 -109 45s-45 66 -45 109s15 79 45 109s66 45 109 45s80 -15 110 -45s45 -66 45 -109s-15 -79 -45 -109s-67 -45 -110 -45zM483 406c7 1 13 5 19 9s9 10 10 17v90h48c7 0 14 2 20 7
s9 12 10 19v4c0 7 -3 13 -8 18s-11 8 -18 9h-81c-7 0 -13 -2 -18 -6s-8 -11 -9 -18v-119c0 -7 2 -14 8 -20s12 -9 19 -8v-2zM867 495c7 0 13 2 19 7s9 11 10 18s-2 15 -7 21s-11 10 -18 11h-63c-7 0 -13 -3 -19 -8s-8 -11 -9 -19s1 -14 6 -20s12 -9 19 -10h62zM217 493
c7 0 13 2 19 8s8 12 9 19s-1 14 -6 20s-12 9 -19 10h-62c-7 0 -13 -3 -19 -8s-9 -11 -10 -18s2 -14 7 -20s11 -10 18 -11h63zM279 248l2 4l42 40c5 5 8 12 8 20s-3 14 -8 20s-11 8 -18 9s-14 0 -20 -4l-44 -45c-5 -5 -8 -11 -8 -19s3 -14 8 -20s11 -8 18 -9s14 0 20 4z
M783 252c6 5 9 11 9 18s-2 14 -6 19l-44 44c-5 5 -11 7 -18 8s-14 -1 -20 -6s-10 -12 -11 -19s2 -14 7 -20l42 -44c6 -6 13 -9 21 -9s15 3 20 9zM512 138c7 0 14 2 20 7s8 12 8 19l2 60c0 7 -2 14 -8 20s-13 8 -20 9s-14 -2 -20 -6s-9 -10 -9 -19l-2 -60c0 -7 3 -15 9 -21
s13 -9 20 -9z" />
</svg>
