<?xml version="1.0" standalone="no"?>
<!DOCTYPE svg PUBLIC "-//W3C//DTD SVG 1.1//EN" "http://www.w3.org/Graphics/SVG/1.1/DTD/svg11.dtd" >
<svg xmlns="http://www.w3.org/2000/svg" xmlns:xlink="http://www.w3.org/1999/xlink" version="1.1" viewBox="-10 0 1034 1024">
   <path fill="currentColor"
d="M662 509c5 0 9 2 13 6s5 8 6 13s0 9 -3 13s-8 6 -13 7h-310c-5 1 -9 0 -13 -4s-5 -8 -6 -13s1 -9 4 -13s7 -6 12 -7zM432 376c5 0 9 1 13 5s5 7 6 12s-1 9 -4 13s-7 7 -12 8h-80c-31 0 -56 11 -79 32c-24 22 -36 49 -36 83c0 29 10 56 30 78c21 23 47 35 78 37h84
c5 0 9 2 13 6s5 7 6 12s-1 9 -4 13s-7 7 -12 8h-80c-42 0 -77 -15 -107 -44c-31 -30 -46 -66 -46 -110c0 -39 14 -74 41 -104c28 -31 62 -47 103 -49h86zM662 376c42 0 78 14 108 43c31 30 46 66 46 110c0 39 -14 75 -41 105c-28 31 -63 47 -105 49h-85c-5 0 -9 -2 -13 -6
s-5 -7 -6 -12s1 -9 4 -13s7 -7 12 -8h80c31 0 57 -11 80 -32c24 -22 35 -49 35 -83c0 -29 -10 -55 -30 -77c-21 -23 -46 -36 -77 -38h-85c-5 0 -9 -1 -13 -5s-5 -8 -6 -13s1 -9 4 -13s7 -6 12 -7h80z" />
</svg>
