<?xml version="1.0" standalone="no"?>
<!DOCTYPE svg PUBLIC "-//W3C//DTD SVG 1.1//EN" "http://www.w3.org/Graphics/SVG/1.1/DTD/svg11.dtd" >
<svg xmlns="http://www.w3.org/2000/svg" xmlns:xlink="http://www.w3.org/1999/xlink" version="1.1" viewBox="-10 0 1034 1024">
   <path fill="currentColor"
d="M597 596v285h38c85 0 127 -48 127 -143c0 -26 -2 -49 -7 -67s-13 -33 -23 -44s-23 -19 -38 -24s-33 -7 -53 -7h-44zM547 553h96c58 0 101 15 129 45c29 30 43 76 43 137c0 18 -1 35 -4 51s-7 31 -13 45s-14 27 -24 39c-10 11 -21 21 -35 29s-30 14 -49 19
c-19 4 -40 6 -64 6h-79v-371zM245 553h222v43h-86v285h86v43h-222v-43h85v-285h-85v-43zM547 107h50v246c0 15 1 27 4 38s8 21 14 28s14 13 24 17s23 5 37 5c27 0 46 -7 59 -23s20 -38 20 -66v-245h50v242c0 20 -3 39 -9 56c-6 16 -14 30 -25 42s-25 21 -41 27
s-35 10 -56 10c-23 0 -43 -3 -59 -9s-29 -15 -39 -26s-17 -24 -22 -40s-7 -33 -7 -52v-250zM391 102c17 0 32 1 47 4s30 8 44 14v51c-14 -7 -28 -13 -43 -17s-31 -7 -48 -7c-20 0 -37 4 -52 11s-28 17 -39 30c-10 13 -18 28 -24 46c-5 18 -9 38 -9 60c0 23 2 43 7 61
s11 32 21 45s22 22 37 29s34 10 55 10h11s9 -1 13 -2s8 -1 12 -2s7 -3 10 -4v-118h-76v-42h126v190c-8 4 -15 7 -24 10s-18 5 -27 7s-18 3 -27 4s-17 2 -25 2c-25 0 -49 -4 -69 -12s-38 -19 -52 -35s-25 -36 -33 -59s-12 -50 -12 -81s4 -58 13 -82s21 -44 36 -61
c16 -17 34 -30 56 -39s46 -13 72 -13z" />
</svg>
