<?xml version="1.0" standalone="no"?>
<!DOCTYPE svg PUBLIC "-//W3C//DTD SVG 1.1//EN" "http://www.w3.org/Graphics/SVG/1.1/DTD/svg11.dtd" >
<svg xmlns="http://www.w3.org/2000/svg" xmlns:xlink="http://www.w3.org/1999/xlink" version="1.1" viewBox="-10 0 1034 1024">
   <path fill="currentColor"
d="M642 273l-206 534c-2 8 -7 12 -15 13s-15 -1 -20 -7s-5 -13 -2 -21l205 -534c2 -5 6 -9 11 -11s10 -2 15 0s10 5 12 10s2 11 0 16zM349 373c4 3 7 8 7 14s-2 12 -5 16l-112 130l112 129c3 4 5 10 4 15s-3 10 -7 14s-10 6 -15 5s-10 -3 -13 -6l-123 -144
c-3 -3 -5 -8 -5 -13s2 -11 5 -14l123 -144c3 -4 8 -7 14 -7s11 2 15 5zM691 712c-4 -3 -6 -9 -6 -14s1 -10 4 -14l112 -132l-112 -130c-3 -4 -4 -9 -4 -14s2 -10 6 -14s10 -6 16 -5s11 3 14 7l123 143c3 4 5 9 5 14s-2 10 -5 14l-123 143c-3 4 -8 6 -14 7s-12 -1 -16 -4v-1z
" />
</svg>
